<?xml version="1.0" encoding="UTF-8" standalone="no"?>
<svg xmlns="http://www.w3.org/2000/svg" width="217pt" height="351.75pt" version="1.1" viewBox="0 0 217 351.75" id="svg8">
  <g id="g6" transform="translate(-241.5,-105)">
    <path d="m 350,456.75 c 3.5,0 8.75,-1.75 10.5,-5.25 3.5,-7 98,-180.25 98,-238 C 458.5,154 409.5,105 350,105 c -59.5,0 -108.5,49 -108.5,108.5 0,59.5 94.5,231 98,238 1.75,3.5 7,5.25 10.5,5.25 z M 350,126 c 47.25,0 84,38.5 84,85.75 0,38.5 -54.25,150.5 -84,208.25 C 320.25,362.25 266,250.25 266,211.75 266,164.5 302.75,126 350,126 Z" id="path2"/>
    <path d="m 400.75,215.25 c 0,-28 -22.75,-50.75 -50.75,-50.75 -28,0 -50.75,22.75 -50.75,50.75 0,28 22.75,50.75 50.75,50.75 28,0 50.75,-22.75 50.75,-50.75 z m -50.75,28 c -15.75,0 -28,-12.25 -28,-28 0,-15.75 12.25,-28 28,-28 15.75,0 28,12.25 28,28 0,15.75 -12.25,28 -28,28 z" id="path4"/>
  </g>
</svg>
